<svg xmlns="http://www.w3.org/2000/svg" xmlns:xlink="http://www.w3.org/1999/xlink" version="1.1" width="256" height="256" viewBox="0 0 256 256" xml:space="preserve">
<g style="stroke: none; stroke-width: 0; stroke-dasharray: none; stroke-linecap: butt; stroke-linejoin: miter; stroke-miterlimit: 10; fill: none; fill-rule: nonzero; opacity: 1;" transform="translate(45.02412451361867 45.024124513618645) scale(1.83 1.83)">
	<path d="M 88 79.623 H 2 c -0.709 0 -1.366 -0.376 -1.725 -0.988 s -0.367 -1.368 -0.021 -1.987 l 15.585 -27.873 c 0.354 -0.633 1.021 -1.024 1.746 -1.024 h 21.818 c 1.104 0 2 0.896 2 2 s -0.896 2 -2 2 H 18.758 L 5.41 75.623 h 79.18 L 71.242 51.75 H 50.598 c -1.104 0 -2 -0.896 -2 -2 s 0.896 -2 2 -2 h 21.817 c 0.725 0 1.393 0.392 1.746 1.024 l 15.585 27.873 c 0.346 0.619 0.338 1.375 -0.021 1.987 C 89.366 79.247 88.71 79.623 88 79.623 z" style="stroke: none; stroke-width: 1; stroke-dasharray: none; stroke-linecap: butt; stroke-linejoin: miter; stroke-miterlimit: 10; fill: rgb(198,164,99); fill-rule: nonzero; opacity: 1;" transform=" matrix(1 0 0 1 0 0) " stroke-linecap="round"/>
	<path d="M 45 61.223 L 45 61.223 c -0.707 0 -1.362 -0.373 -1.722 -0.982 l -1.688 -2.856 c -5.271 -8.91 -10.709 -18.105 -12.46 -21.617 c -1.185 -2.433 -1.782 -5.031 -1.782 -7.737 c 0 -9.733 7.919 -17.652 17.652 -17.652 s 17.652 7.919 17.652 17.652 c 0 2.688 -0.589 5.268 -1.749 7.67 c -0.014 0.028 -0.037 0.073 -0.052 0.1 c -1.731 3.478 -7.168 12.668 -12.425 21.557 l -1.705 2.884 C 46.361 60.85 45.707 61.223 45 61.223 z M 45 14.377 c -7.528 0 -13.652 6.125 -13.652 13.652 c 0 2.095 0.461 4.103 1.37 5.969 C 34.394 37.36 39.783 46.473 45 55.293 c 5.221 -8.826 10.606 -17.934 12.294 -21.321 c 0.904 -1.868 1.358 -3.863 1.358 -5.943 C 58.652 20.501 52.528 14.377 45 14.377 z" style="stroke: none; stroke-width: 1; stroke-dasharray: none; stroke-linecap: butt; stroke-linejoin: miter; stroke-miterlimit: 10; fill: rgb(198,164,99); fill-rule: nonzero; opacity: 1;" transform=" matrix(1 0 0 1 0 0) " stroke-linecap="round"/>
	<path d="M 45.023 37.225 c -5.225 0 -9.475 -4.25 -9.475 -9.475 s 4.25 -9.475 9.475 -9.475 s 9.476 4.25 9.476 9.475 S 50.248 37.225 45.023 37.225 z M 45.023 22.275 c -3.019 0 -5.475 2.456 -5.475 5.475 s 2.456 5.475 5.475 5.475 c 3.02 0 5.476 -2.456 5.476 -5.475 S 48.043 22.275 45.023 22.275 z" style="stroke: none; stroke-width: 1; stroke-dasharray: none; stroke-linecap: butt; stroke-linejoin: miter; stroke-miterlimit: 10; fill: rgb(198,164,99); fill-rule: nonzero; opacity: 1;" transform=" matrix(1 0 0 1 0 0) " stroke-linecap="round"/>
	<path d="M 1.999 79.624 c -0.882 0 -1.69 -0.589 -1.93 -1.481 c -0.287 -1.067 0.346 -2.164 1.413 -2.451 l 74.762 -20.098 c 1.068 -0.286 2.165 0.346 2.451 1.412 c 0.286 1.067 -0.346 2.164 -1.412 2.451 L 2.519 79.555 C 2.345 79.602 2.17 79.624 1.999 79.624 z" style="stroke: none; stroke-width: 1; stroke-dasharray: none; stroke-linecap: butt; stroke-linejoin: miter; stroke-miterlimit: 10; fill: rgb(198,164,99); fill-rule: nonzero; opacity: 1;" transform=" matrix(1 0 0 1 0 0) " stroke-linecap="round"/>
	<path d="M 63.101 73.659 c -0.57 0 -1.137 -0.243 -1.532 -0.714 l -7.166 -8.535 c -0.711 -0.846 -0.601 -2.107 0.245 -2.817 c 0.846 -0.711 2.108 -0.6 2.817 0.245 l 7.166 8.535 c 0.711 0.846 0.601 2.107 -0.245 2.817 C 64.011 73.506 63.555 73.659 63.101 73.659 z" style="stroke: none; stroke-width: 1; stroke-dasharray: none; stroke-linecap: butt; stroke-linejoin: miter; stroke-miterlimit: 10; fill: rgb(198,164,99); fill-rule: nonzero; opacity: 1;" transform=" matrix(1 0 0 1 0 0) " stroke-linecap="round"/>
	<path d="M 34.66 70.844 c -0.57 0 -1.137 -0.243 -1.533 -0.714 L 23.31 58.437 c -0.71 -0.846 -0.6 -2.107 0.246 -2.817 c 0.847 -0.711 2.108 -0.601 2.818 0.245 l 9.818 11.693 c 0.71 0.846 0.6 2.107 -0.246 2.817 C 35.57 70.69 35.114 70.844 34.66 70.844 z" style="stroke: none; stroke-width: 1; stroke-dasharray: none; stroke-linecap: butt; stroke-linejoin: miter; stroke-miterlimit: 10; fill: rgb(198,164,99); fill-rule: nonzero; opacity: 1;" transform=" matrix(1 0 0 1 0 0) " stroke-linecap="round"/>
</g>
</svg>