<svg xmlns="http://www.w3.org/2000/svg" xmlns:xlink="http://www.w3.org/1999/xlink" version="1.1" width="256" height="256" viewBox="0 0 256 256" xml:space="preserve">
<g style="stroke: none; stroke-width: 0; stroke-dasharray: none; stroke-linecap: butt; stroke-linejoin: miter; stroke-miterlimit: 10; fill: none; fill-rule: nonzero; opacity: 1;" transform="translate(1.4065934065934016 1.4065934065934016) scale(2.81 2.81)">
	<path d="M 63.517 0 H 26.483 c -4.399 0 -7.979 3.58 -7.979 7.979 v 74.042 c 0 4.399 3.58 7.979 7.979 7.979 h 37.033 c 4.399 0 7.979 -3.579 7.979 -7.979 V 7.979 C 71.495 3.58 67.916 0 63.517 0 z M 22.504 18.089 h 44.991 v 54.313 H 22.504 V 18.089 z M 26.483 4 h 37.033 c 2.193 0 3.979 1.785 3.979 3.979 v 6.11 H 22.504 v -6.11 C 22.504 5.785 24.29 4 26.483 4 z M 63.517 86 H 26.483 c -2.194 0 -3.979 -1.785 -3.979 -3.979 v -5.619 h 44.991 v 5.619 C 67.495 84.215 65.71 86 63.517 86 z" style="stroke: none; stroke-width: 1; stroke-dasharray: none; stroke-linecap: butt; stroke-linejoin: miter; stroke-miterlimit: 10; fill: rgb(198,164,99); fill-rule: nonzero; opacity: 1;" transform=" matrix(1 0 0 1 0 0) " stroke-linecap="round"/>
	<circle cx="45.003" cy="81.203" r="2.443" style="stroke: none; stroke-width: 1; stroke-dasharray: none; stroke-linecap: butt; stroke-linejoin: miter; stroke-miterlimit: 10; fill: rgb(198,164,99); fill-rule: nonzero; opacity: 1;" transform="  matrix(1 0 0 1 0 0) "/>
	<path d="M 46.143 11.089 H 35.338 c -1.104 0 -2 -0.896 -2 -2 s 0.896 -2 2 -2 h 10.804 c 1.104 0 2 0.896 2 2 S 47.247 11.089 46.143 11.089 z" style="stroke: none; stroke-width: 1; stroke-dasharray: none; stroke-linecap: butt; stroke-linejoin: miter; stroke-miterlimit: 10; fill: rgb(198,164,99); fill-rule: nonzero; opacity: 1;" transform=" matrix(1 0 0 1 0 0) " stroke-linecap="round"/>
	<circle cx="52.705" cy="9.085" r="1.955" style="stroke: none; stroke-width: 1; stroke-dasharray: none; stroke-linecap: butt; stroke-linejoin: miter; stroke-miterlimit: 10; fill: rgb(198,164,99); fill-rule: nonzero; opacity: 1;" transform="  matrix(1 0 0 1 0 0) "/>
	<path d="M 28.592 38.055 c -0.456 0 -0.914 -0.155 -1.289 -0.471 c -0.844 -0.712 -0.951 -1.974 -0.239 -2.818 l 10.193 -12.082 c 0.713 -0.845 1.975 -0.951 2.818 -0.239 c 0.844 0.712 0.951 1.974 0.239 2.818 L 30.122 37.345 C 29.726 37.814 29.161 38.055 28.592 38.055 z" style="stroke: none; stroke-width: 1; stroke-dasharray: none; stroke-linecap: butt; stroke-linejoin: miter; stroke-miterlimit: 10; fill: rgb(198,164,99); fill-rule: nonzero; opacity: 1;" transform=" matrix(1 0 0 1 0 0) " stroke-linecap="round"/>
	<path d="M 28.592 53.104 c -0.456 0 -0.913 -0.154 -1.289 -0.472 c -0.844 -0.712 -0.951 -1.974 -0.239 -2.818 l 22.89 -27.13 c 0.711 -0.843 1.973 -0.951 2.818 -0.239 c 0.844 0.712 0.951 1.974 0.238 2.818 L 30.122 52.395 C 29.726 52.863 29.161 53.104 28.592 53.104 z" style="stroke: none; stroke-width: 1; stroke-dasharray: none; stroke-linecap: butt; stroke-linejoin: miter; stroke-miterlimit: 10; fill: rgb(198,164,99); fill-rule: nonzero; opacity: 1;" transform=" matrix(1 0 0 1 0 0) " stroke-linecap="round"/>
</g>
</svg>