<svg xmlns="http://www.w3.org/2000/svg" xmlns:xlink="http://www.w3.org/1999/xlink" version="1.1" width="256" height="256" viewBox="0 0 256 256" xml:space="preserve">
<g style="stroke: none; stroke-width: 0; stroke-dasharray: none; stroke-linecap: butt; stroke-linejoin: miter; stroke-miterlimit: 10; fill: none; fill-rule: nonzero; opacity: 1;" transform="translate(1.4065934065934016 1.4065934065934016) scale(2.81 2.81)">
	<path d="M 47.593 26.9 c -0.472 0 -0.892 -0.335 -0.981 -0.815 L 43.061 7.177 l -22.345 4.196 l 2.693 14.342 c 0.102 0.543 -0.255 1.065 -0.798 1.167 c -0.545 0.101 -1.065 -0.256 -1.167 -0.798 l -2.878 -15.325 c -0.049 -0.261 0.008 -0.53 0.157 -0.749 c 0.15 -0.219 0.38 -0.37 0.641 -0.418 l 24.311 -4.565 c 0.544 -0.102 1.065 0.256 1.167 0.798 l 3.734 19.89 c 0.103 0.543 -0.255 1.065 -0.798 1.167 C 47.716 26.895 47.654 26.9 47.593 26.9 z" style="stroke: none; stroke-width: 1; stroke-dasharray: none; stroke-linecap: butt; stroke-linejoin: miter; stroke-miterlimit: 10; fill: rgb(198,164,99); fill-rule: nonzero; opacity: 1;" transform=" matrix(1 0 0 1 0 0) " stroke-linecap="round"/>
	<path d="M 66.013 26.9 c -0.067 0 -0.136 -0.007 -0.205 -0.021 c -0.54 -0.113 -0.888 -0.642 -0.774 -1.183 l 2.826 -13.569 L 56.498 9.76 l -3.404 16.344 c -0.112 0.54 -0.636 0.885 -1.183 0.775 c -0.54 -0.113 -0.888 -0.642 -0.774 -1.183 l 3.607 -17.323 c 0.054 -0.259 0.209 -0.487 0.431 -0.632 s 0.494 -0.197 0.752 -0.143 l 13.319 2.774 c 0.54 0.113 0.888 0.642 0.774 1.183 l -3.03 14.548 C 66.893 26.576 66.477 26.9 66.013 26.9 z" style="stroke: none; stroke-width: 1; stroke-dasharray: none; stroke-linecap: butt; stroke-linejoin: miter; stroke-miterlimit: 10; fill: rgb(198,164,99); fill-rule: nonzero; opacity: 1;" transform=" matrix(1 0 0 1 0 0) " stroke-linecap="round"/>
	<path d="M 58.526 10.161 c -0.553 0 -1 -0.448 -1 -1 V 2 H 38.791 v 5.149 c 0 0.552 -0.448 1 -1 1 s -1 -0.448 -1 -1 V 1 c 0 -0.552 0.448 -1 1 -1 h 20.735 c 0.553 0 1 0.448 1 1 v 8.161 C 59.526 9.713 59.079 10.161 58.526 10.161 z" style="stroke: none; stroke-width: 1; stroke-dasharray: none; stroke-linecap: butt; stroke-linejoin: miter; stroke-miterlimit: 10; fill: rgb(198,164,99); fill-rule: nonzero; opacity: 1;" transform=" matrix(1 0 0 1 0 0) " stroke-linecap="round"/>
	<path d="M 80.235 90 H 9.765 c -0.278 0 -0.543 -0.115 -0.732 -0.319 c -0.189 -0.203 -0.286 -0.476 -0.266 -0.753 l 4.563 -63.1 c 0.038 -0.523 0.473 -0.928 0.998 -0.928 h 61.344 c 0.524 0 0.96 0.405 0.997 0.928 l 4.563 63.1 c 0.021 0.277 -0.076 0.55 -0.265 0.753 C 80.778 89.885 80.513 90 80.235 90 z M 10.839 88 H 79.16 l -4.419 -61.1 H 15.258 L 10.839 88 z" style="stroke: none; stroke-width: 1; stroke-dasharray: none; stroke-linecap: butt; stroke-linejoin: miter; stroke-miterlimit: 10; fill: rgb(198,164,99); fill-rule: nonzero; opacity: 1;" transform=" matrix(1 0 0 1 0 0) " stroke-linecap="round"/>
	<path d="M 45 71.738 c -8.55 0 -15.506 -6.956 -15.506 -15.506 V 41.727 c 0 -0.552 0.448 -1 1 -1 s 1 0.448 1 1 v 14.506 c 0 7.447 6.059 13.506 13.506 13.506 s 13.506 -6.059 13.506 -13.506 V 41.727 c 0 -0.552 0.447 -1 1 -1 s 1 0.448 1 1 v 14.506 C 60.506 64.782 53.55 71.738 45 71.738 z" style="stroke: none; stroke-width: 1; stroke-dasharray: none; stroke-linecap: butt; stroke-linejoin: miter; stroke-miterlimit: 10; fill: rgb(198,164,99); fill-rule: nonzero; opacity: 1;" transform=" matrix(1 0 0 1 0 0) " stroke-linecap="round"/>
	<path d="M 34.604 42.727 h -8.291 c -0.552 0 -1 -0.448 -1 -1 s 0.448 -1 1 -1 h 8.291 c 0.552 0 1 0.448 1 1 S 35.156 42.727 34.604 42.727 z" style="stroke: none; stroke-width: 1; stroke-dasharray: none; stroke-linecap: butt; stroke-linejoin: miter; stroke-miterlimit: 10; fill: rgb(198,164,99); fill-rule: nonzero; opacity: 1;" transform=" matrix(1 0 0 1 0 0) " stroke-linecap="round"/>
	<path d="M 63.651 42.727 H 55.36 c -0.553 0 -1 -0.448 -1 -1 s 0.447 -1 1 -1 h 8.291 c 0.553 0 1 0.448 1 1 S 64.204 42.727 63.651 42.727 z" style="stroke: none; stroke-width: 1; stroke-dasharray: none; stroke-linecap: butt; stroke-linejoin: miter; stroke-miterlimit: 10; fill: rgb(198,164,99); fill-rule: nonzero; opacity: 1;" transform=" matrix(1 0 0 1 0 0) " stroke-linecap="round"/>
</g>
</svg>